PathFileType	4	(X/Y/Z)	KinectSkeleton.trc																																																	
DataRate	CameraRate	NumFrames	NumMarkers	Units	OrigDataRate	OrigDataStartFrame	OrigNumFrames																																													
60	60	27	17	mm	60	372	300																																													
Frame#	Time	Neck			ShoulderMid			R.Shoulder			L.Shoulder			R.Elbow			L.Elbow			R.Wrist			L.Wrist			HipCenter			R.Hip			L.Hip			R.Knee			L.Knee			R.Ankle			L.Ankle			R.Foot			L.Foot		
		X1	Y1	Z1	X2	Y2	Z2	X3	Y3	Z3	X4	Y4	Z4	X5	Y5	Z5	X6	Y6	Z6	X7	Y7	Z7	X8	Y8	Z8	X9	Y9	Z9	X10	Y10	Z10	X11	Y11	Z11	X12	Y12	Z12	X13	Y13	Z13	X14	Y14	Z14	X15	Y15	Z15	X16	Y16	Z16	X17	Y17	Z17
																																																				
372	18.918	-1023.116	284.994	128.101	-1023.116	284.994	128.101	-987.161	223.752	274.404	-1027.488	222.721	-33.263	-1004.27	15.372	431.952	-1118.233	6.879	-139.058	-814.087	-90.633	415.172	-942.475	-114.767	-167.608	-853.517	-184.522	99.019	-845.366	-186.94	174.992	-862.555	-181.84	14.767	-589.839	-456.94	167.646	-612.46	-453.081	-34.498	-595.901	-815.883	149.204	-600.106	-808.591	-35.023	-461.737	-903.415	144.705	-453.491	-898.885	-61.293
373	18.964	-1022.159	283.96	125.099	-1022.159	283.96	125.099	-985.836	223.755	271.193	-1026.78	221.423	-35.562	-1008.627	17.895	430.048	-1119.107	6.012	-139.002	-821.252	-91.672	412.941	-943.774	-115.389	-166.38	-853.693	-184.492	97.831	-845.519	-186.651	173.583	-862.756	-182.097	13.825	-595.95	-460.728	168.077	-616.55	-455.639	-33.994	-608.139	-818.525	151.089	-607.244	-810.191	-32.943	-476.473	-908.927	146.378	-462.368	-902.577	-58.164
374	19.009	-1023.668	283.697	123.48	-1023.668	283.697	123.48	-984.569	224.375	269.567	-1028.662	219.737	-36.895	-1012.128	20.813	431.158	-1120.779	3.839	-140.328	-826.89	-92.756	413.299	-943.505	-115.236	-167.604	-854.607	-185.382	98.56	-846.188	-187.076	174.396	-863.943	-183.502	14.461	-604.624	-468.883	169.84	-622.381	-461.877	-32.878	-618.143	-827.162	154.326	-612.856	-816.874	-30.338	-486.771	-918.31	148.836	-467.812	-909.474	-55.353
375	19.056	-1027.179	284.098	124.277	-1027.179	284.098	124.277	-981.641	224.069	268.38	-1026.894	219.43	-35.981	-1011.372	22.048	430.866	-1115.381	2.456	-139.351	-827.423	-93.394	416.067	-937.766	-115.345	-167.317	-846.487	-179.916	99.878	-837.265	-180.694	175.517	-856.713	-179.054	15.997	-616.655	-478.489	171.778	-635.889	-473.551	-30.574	-621.336	-836.527	158.445	-618.538	-827.69	-26.621	-487.792	-923.8	150.242	-471.68	-916.571	-52.662
376	19.102	-1023.124	286.403	123.14	-1023.124	286.403	123.14	-976.094	222.733	265.273	-1029.095	220.346	-35.854	-1009.349	23.834	429.635	-1119.327	3.181	-135.296	-831.886	-100.043	413.681	-938.834	-108.137	-166.177	-842.422	-175.52	99.803	-831.177	-174.993	174.934	-854.893	-176.104	16.486	-616.838	-475.941	171.442	-641.115	-474.549	-28.76	-620.115	-833.036	162.651	-623.004	-827.512	-21.592	-489.199	-922.862	150.255	-480.034	-920.3	-51.768
377	19.15	-1024.739	286.362	124.224	-1024.739	286.362	124.224	-976.923	222.62	266.181	-1029.844	220.399	-35.004	-1009.034	23.252	430.441	-1113.835	0.806	-134.963	-831.436	-100.672	414.638	-930.574	-106.223	-165.57	-842.317	-175.206	100.088	-831.052	-174.73	175.261	-854.81	-175.733	16.724	-616.824	-476.021	171.803	-641.705	-474.929	-28.491	-620.168	-833.313	162.608	-624.897	-828.158	-21.145	-489.115	-923.114	150.28	-482.058	-921.433	-51.016
378	19.196	-1023.145	288.157	126.145	-1023.145	288.157	126.145	-973.489	225.017	266.84	-1029.001	221.716	-32.042	-1012.046	26.467	428.646	-1116.2	4.677	-131.6	-837.201	-99.306	411.555	-933.834	-101.54	-162.944	-834.395	-167.71	100.395	-821.418	-166.491	174.9	-848.785	-169.061	17.771	-614.378	-470.523	169.491	-645.515	-472.579	-28.925	-612.784	-826.117	163.227	-626.218	-823.869	-19.306	-483.475	-916.612	148.066	-485.909	-918.951	-50.478
379	19.242	-1025.306	287.482	131.039	-1025.306	287.482	131.039	-975.466	229.446	273.786	-1027.015	219.099	-27.09	-1005.863	27.791	434.582	-1131.801	10.676	-129.767	-800.695	-35.367	405.504	-945.573	-91.026	-156.936	-831.804	-168.222	107.067	-819.863	-167.424	181.953	-845.046	-169.107	24.021	-617.104	-475.409	173.053	-646.637	-476.761	-24.161	-611.757	-831.893	166.126	-628.362	-829.02	-13.999	-479.322	-918.299	149.759	-484.246	-919.707	-43.359
380	19.289	-1018.534	283.729	132.047	-1018.534	283.729	132.047	-970.389	227.489	270.413	-1023.548	213.221	-19.423	-1006.016	37.466	431.24	-1138.013	25.781	-132.033	-807.899	-18.427	390.858	-945.134	-22.078	-190.506	-838.977	-161.067	109.708	-826.517	-160.2	182.074	-852.794	-162.029	29.456	-639.21	-464.151	172.04	-668.074	-465.094	-13.864	-629.865	-809.332	171.374	-647.407	-805.948	-1.247	-498.421	-887.784	155.053	-504.594	-889.122	-27.376
381	19.334	-1019.006	285.333	135.867	-1019.006	285.333	135.867	-971.435	224.768	277.746	-1027.222	216.173	-20.995	-999.998	28.887	444.249	-1142.547	20.793	-134.897	-789.219	-15.916	433.282	-948.326	4.764	-221.038	-845.928	-176.848	110.545	-833.55	-176.666	185.058	-859.654	-177.05	27.913	-633.773	-484.798	174.681	-664.059	-485.466	-15.408	-634.308	-839.963	172.614	-654.468	-836.561	-2.178	-496.961	-916.846	155.384	-506.17	-919.51	-29.483
382	19.383	-1019.742	283.484	141.17	-1019.742	283.484	141.17	-970.354	223.286	283.808	-1043.757	216.467	-15.952	-990.676	36.472	465.142	-1153.258	28.084	-150.885	-773.932	15.215	460.595	-966.865	60.534	-253.239	-844.01	-182.361	110.578	-829.833	-181.868	185.504	-859.732	-182.909	27.488	-630.095	-493.952	169.179	-655.014	-489.133	-19.118	-633.063	-852.505	167.35	-651.058	-843.754	-7.382	-498.895	-936.468	144.919	-505.954	-934.903	-36.094
383	19.427	-1020.842	284.532	143.008	-1020.842	284.532	143.008	-969.92	224.169	286.088	-1048.403	216.215	-14.017	-989.686	38.003	470.28	-1162.134	36.059	-159.092	-771.697	16.626	466.097	-982.828	78.805	-272.333	-842.272	-183.186	111.801	-827.304	-182.326	187.013	-858.871	-184.141	28.393	-630.766	-498.692	166.542	-651.73	-490.775	-21.617	-631.693	-859.304	165.097	-647.789	-847.418	-9.74	-498.034	-945.093	140.154	-503.107	-940.719	-39.664
384	19.473	-1026.771	285.235	152.455	-1026.771	285.235	152.455	-971.392	223.59	294.225	-1053.417	223.007	-7.645	-976.985	44.793	488.355	-1176.005	56.037	-163.258	-757.803	62.799	499.451	-1015.126	127.628	-290.837	-791.457	-157.351	114.072	-762.739	-145.244	184.577	-823.305	-170.777	35.885	-398.696	-211.982	124.697	-545.212	-404.307	-58.973	-432.947	-572.455	141.144	-582.315	-755.879	1.719	-325.889	-685.913	98.971	-459.141	-874.683	-37.8
385	19.518	-1025.901	282.986	154.022	-1025.901	282.986	154.022	-966.618	223.063	294.858	-1055.582	215.032	-3.268	-987.039	44.761	487.872	-1188.322	61.366	-163.5	-770.406	69.713	515.808	-1037.116	140.796	-297.513	-784.809	-156.311	119.925	-756.388	-143.158	190.228	-816.327	-170.896	41.961	-426.396	-296.127	101.782	-534.382	-397.711	-55.413	-383.313	-654.774	123.707	-539.192	-750.273	7.266	-250.067	-730.643	73.523	-405.629	-854.236	-38.582
386	19.565	-1029.669	286.077	157.572	-1029.669	286.077	157.572	-970.55	226.724	299.88	-1057.08	215.179	-0.524	-978.304	54.794	501.761	-1194.516	70.001	-167.322	-765.818	108.515	532.289	-1057.225	159.535	-311.844	-786.051	-155.419	122.683	-758.205	-142.947	193.888	-816.931	-169.25	43.719	-444.676	-332.097	105.113	-536.919	-403.453	-51.187	-360.641	-686.364	115.998	-514.503	-758.991	3.835	-218.576	-744.524	63.021	-372.636	-852.689	-43.582
387	19.611	-1028.49	286.641	157.972	-1028.49	286.641	157.972	-960.8	227.665	299.163	-1058.218	213.399	-0.827	-980.47	58.684	506.45	-1210.712	76.8	-166.203	-759.209	55.5	473.762	-1130.695	180.841	-343.867	-782.914	-159.942	122.822	-749.809	-144.02	191.977	-819.625	-177.6	46.132	-448.7	-355.091	92.815	-540.272	-411.926	-65.298	-349.628	-709.349	108.978	-497.136	-767.669	0.681	-206.955	-765.226	50.09	-351.982	-856.38	-53.105
388	19.658	-1031.548	283.758	162.188	-1031.548	283.758	162.188	-967.725	228.506	307.726	-1072.351	208.914	5.141	-979.878	63.576	522.549	-1228.45	93.271	-176.668	-762.757	39.371	464.122	-1124.573	188.779	-349.753	-788.171	-170.625	124.129	-755.104	-156.438	194.646	-824.842	-186.359	45.928	-450.07	-364.909	86.238	-531.433	-407.459	-70.707	-356.667	-725.082	97.374	-491.082	-769.037	-12.95	-211.852	-786.705	44.717	-344.755	-861.924	-62.916
389	19.706	-1036.006	284.738	166.564	-1036.006	284.738	166.564	-970.547	236.276	316.144	-1081.654	205.969	9.296	-971	80.387	543.933	-1248.152	107.812	-180.52	-752.705	45.788	479.409	-1172.233	206.175	-370.933	-777.888	-171.126	122.281	-741.791	-155.38	192.608	-817.918	-188.588	44.29	-434.786	-364.21	66.815	-517.342	-402.299	-89.867	-342.844	-731.372	86.417	-469.085	-768.773	-26.321	-200.53	-806.288	34.609	-323.109	-870.105	-72.689
390	19.753	-1038.817	288.488	168.061	-1038.817	288.488	168.061	-972.821	241.322	320.089	-1084.382	206.792	9.231	-966.318	87.469	553.564	-1256.899	108.954	-180.537	-745.063	56.099	486.549	-1192.998	214.805	-374.93	-776.286	-172.498	119.018	-738.7	-156.997	189.851	-817.968	-189.689	40.467	-426.891	-362.658	54.695	-510.998	-398.302	-102.288	-334.432	-734.798	75.768	-454.69	-769.076	-40.793	-190.711	-811.693	23.391	-305.142	-869.038	-88.439
391	19.799	-1041.339	289.052	171.124	-1041.339	289.052	171.124	-971.573	242.565	321.919	-1089.484	209.662	11.852	-960.927	93.839	559.181	-1263.579	123.522	-182.846	-738.542	59.531	495.88	-1212.553	223.868	-384.362	-766.671	-165.137	119.118	-728.848	-147.723	189.561	-808.615	-184.449	40.999	-419.306	-354.363	48.556	-502.495	-390.241	-109.601	-317.716	-724.909	69.187	-437.051	-760.146	-47.378	-176.096	-804.273	13.777	-289.02	-862.125	-96.86
392	19.842	-1041.842	289.338	174.433	-1041.842	289.338	174.433	-969.822	244.461	322.614	-1091.415	211.067	17.312	-951.113	107.45	563.157	-1272.952	133.992	-170.451	-730.77	71.497	502.149	-1231.791	237.597	-369.967	-766.575	-158.265	119.703	-728.169	-140.463	188.787	-809.166	-178.007	43.091	-422.146	-342.731	44.828	-505.421	-378.747	-108.775	-312.765	-707.297	61.254	-431.259	-743.891	-51.279	-172.396	-783.146	3.024	-283.727	-841.924	-103.262
393	19.888	-1037.204	285.873	175.003	-1037.204	285.873	175.003	-965.76	241.199	323.94	-1088.172	209.066	16.984	-947.096	111.956	569.912	-1276.695	141.592	-169.047	-725.47	79.369	508.405	-1240.964	254.202	-365.68	-767.356	-167.065	116.091	-728.454	-150.758	185.618	-810.497	-185.15	38.989	-415.39	-338.089	32.856	-497.228	-368.542	-119.141	-310.545	-705.597	45.675	-426.003	-736.343	-65.849	-168.88	-780.55	-12.413	-276.641	-832.497	-118.542
394	19.934	-1040.362	286.885	177.894	-1040.362	286.885	177.894	-964.195	241.324	325.88	-1095.969	212.266	18.979	-943.077	112.223	574.389	-1281.873	148.147	-174.145	-719.448	80.375	512.305	-1242.68	276.459	-362.599	-772.909	-172.505	112.171	-731.969	-156.493	181.403	-818.31	-190.261	35.396	-415.042	-338.185	21.287	-499.569	-364.896	-129.957	-312.612	-709.841	30.215	-426.148	-736.288	-82.031	-169.664	-782.011	-32.327	-274.825	-828.421	-141.417
395	19.978	-1040.572	288.705	182.291	-1040.572	288.705	182.291	-961.913	241.071	329.438	-1099.31	218.611	21.979	-938.142	111.695	579.198	-1288.707	156.846	-170.545	-713.686	82.727	514.203	-1247.125	298.256	-350.381	-764.99	-167.658	110.301	-723.795	-150.9	179.705	-810.674	-186.242	33.335	-407.057	-331.612	13.113	-492.108	-359.052	-139.094	-302.335	-704.728	20.251	-415.781	-732.004	-92.171	-161.549	-779.469	-46.472	-266.241	-827.293	-154.069
396	20.024	-1039.478	287.62	181.321	-1039.478	287.62	181.321	-962.183	240.941	327.289	-1099.131	221.498	21.817	-931.679	130.068	582.455	-1290.533	164.206	-166.688	-709.34	97.874	518.943	-1249.746	310.727	-339.946	-770.784	-166.388	102.18	-729.316	-151.565	171.03	-816.771	-182.826	25.829	-411.455	-322.959	4.904	-497.155	-349.291	-142.946	-308.623	-693.245	5.679	-417.078	-719.353	-107.308	-169.175	-767.899	-60.155	-267.852	-812.386	-168.564
397	20.071	-1038.09	288.514	181.977	-1038.09	288.514	181.977	-960.698	242.381	328.236	-1096.763	221.208	22.15	-931.386	137.036	586.243	-1293.275	173.174	-164.16	-709.35	114.174	516.852	-1233.838	320.57	-331.558	-765.595	-163.756	101.601	-724.036	-148.676	170.459	-811.683	-180.478	25.24	-407.6	-314.11	-5.31	-491.605	-340.904	-149.546	-304.176	-684.718	-4.516	-410.265	-711.091	-113.125	-165.581	-758.968	-73.096	-260.884	-803.303	-175.919
398	20.117	-1037.573	287.358	182.852	-1037.573	287.358	182.852	-960.235	240.131	327.712	-1096.543	223.375	23.578	-929.758	140.196	585.805	-1289.617	175.048	-163.672	-708.667	122.821	516.802	-1231.616	329.083	-323.401	-761.267	-158.593	104.166	-720.943	-142.896	173.003	-805.984	-176	27.827	-404.825	-302.619	-2.902	-485.442	-329.904	-146.208	-298.105	-669.739	-4.493	-400.968	-697.078	-111.726	-160.748	-742.55	-74.371	-252.784	-788.389	-175.155
